{
  "accessors": [
    {
      "bufferView": 2,
      "componentType": 5126,
      "count": 6059,
      "max": [
        0.5433374047279358,
        0.5433374047279358,
        1.0478678941726685
      ],
      "min": [
        -0.5433374047279358,
        -0.5433374047279358,
        -0.00683632493019104
      ],
      "type": "VEC3"
    },
    {
      "bufferView": 2,
      "byteOffset": 72708,
      "componentType": 5126,
      "count": 6059,
      "max": [
        0.9998793005943298,
        0.9998836517333984,
        0.999975860118866
      ],
      "min": [
        -0.9998758435249329,
        -0.9998763203620911,
        -0.9999538064002991
      ],
      "type": "VEC3"
    },
    {
      "bufferView": 3,
      "componentType": 5126,
      "count": 6059,
      "max": [
        1.0,
        0.999876081943512,
        0.9999849200248718,
        1.0
      ],
      "min": [
        -0.9999995827674866,
        -0.9999977350234985,
        -0.9999937415122986,
        -1.0
      ],
      "type": "VEC4"
    },
    {
      "bufferView": 1,
      "componentType": 5126,
      "count": 6059,
      "max": [
        0.9984084963798523,
        0.987838089466095
      ],
      "min": [
        0.001590670202858746,
        0.0015882253646850586
      ],
      "type": "VEC2"
    },
    {
      "bufferView": 0,
      "componentType": 5125,
      "count": 25824,
      "type": "SCALAR"
    }
  ],
  "asset": {
    "extras": {
      "author": "Furnitures (https://sketchfab.com/furnitures)",
      "license": "CC-BY-NC-4.0 (http://creativecommons.org/licenses/by-nc/4.0/)",
      "source": "https://sketchfab.com/3d-models/nordic-table-6270118bb9524c06b1a984616f381bc1",
      "title": "Nordic Table"
    },
    "generator": "Sketchfab-10.55.0",
    "version": "2.0"
  },
  "bufferViews": [
    {
      "buffer": 0,
      "byteLength": 103296,
      "name": "floatBufferViews",
      "target": 34963
    },
    {
      "buffer": 0,
      "byteLength": 48472,
      "byteOffset": 103296,
      "byteStride": 8,
      "name": "floatBufferViews",
      "target": 34962
    },
    {
      "buffer": 0,
      "byteLength": 145416,
      "byteOffset": 151768,
      "byteStride": 12,
      "name": "floatBufferViews",
      "target": 34962
    },
    {
      "buffer": 0,
      "byteLength": 96944,
      "byteOffset": 297184,
      "byteStride": 16,
      "name": "floatBufferViews",
      "target": 34962
    }
  ],
  "buffers": [
    {
      "byteLength": 394128,
      "uri": "scene.bin"
    }
  ],
  "images": [
    {
      "uri": "textures/M_Furniture_Table_1_baseColor.png"
    },
    {
      "uri": "textures/M_Furniture_Table_1_metallicRoughness.png"
    },
    {
      "uri": "textures/M_Furniture_Table_1_normal.png"
    }
  ],
  "materials": [
    {
      "doubleSided": true,
      "name": "M_Furniture_Table_1",
      "normalTexture": {
        "index": 2
      },
      "pbrMetallicRoughness": {
        "baseColorTexture": {
          "index": 0
        },
        "metallicFactor": 0.0,
        "metallicRoughnessTexture": {
          "index": 1
        }
      }
    }
  ],
  "meshes": [
    {
      "name": "Furniture_Table_1_M_Furniture_Table_1_0",
      "primitives": [
        {
          "attributes": {
            "NORMAL": 1,
            "POSITION": 0,
            "TANGENT": 2,
            "TEXCOORD_0": 3
          },
          "indices": 4,
          "material": 0,
          "mode": 4
        }
      ]
    }
  ],
  "nodes": [
    {
      "children": [
        1
      ],
      "matrix": [
        1.0,
        0.0,
        0.0,
        0.0,
        0.0,
        2.220446049250313e-16,
        -1.0,
        0.0,
        0.0,
        1.0,
        2.220446049250313e-16,
        0.0,
        0.0,
        0.0,
        0.0,
        1.0
      ],
      "name": "Sketchfab_model"
    },
    {
      "children": [
        2
      ],
      "matrix": [
        1.0,
        0.0,
        0.0,
        0.0,
        0.0,
        0.0,
        1.0,
        0.0,
        0.0,
        -1.0,
        0.0,
        0.0,
        0.0,
        0.0,
        0.0,
        1.0
      ],
      "name": "cdddeab993b741dbb9b5e46b3bb611c1.fbx"
    },
    {
      "children": [
        3
      ],
      "name": "RootNode"
    },
    {
      "children": [
        4
      ],
      "matrix": [
        100.0,
        0.0,
        0.0,
        0.0,
        0.0,
        -1.629206793918314e-05,
        -99.99999999999868,
        0.0,
        0.0,
        99.99999999999868,
        -1.629206793918314e-05,
        0.0,
        0.0,
        0.4901587963104248,
        81.84049224853516,
        1.0
      ],
      "name": "Furniture_Table_1"
    },
    {
      "mesh": 0,
      "name": "Furniture_Table_1_M_Furniture_Table_1_0"
    }
  ],
  "samplers": [
    {
      "magFilter": 9729,
      "minFilter": 9987,
      "wrapS": 10497,
      "wrapT": 10497
    }
  ],
  "scene": 0,
  "scenes": [
    {
      "name": "Sketchfab_Scene",
      "nodes": [
        0
      ]
    }
  ],
  "textures": [
    {
      "sampler": 0,
      "source": 0
    },
    {
      "sampler": 0,
      "source": 1
    },
    {
      "sampler": 0,
      "source": 2
    }
  ]
}
