{
  "accessors": [
    {
      "bufferView": 2,
      "componentType": 5126,
      "count": 5016,
      "max": [
        0.64595645666122437,
        2.6360557079315186,
        0.66825675964355469
      ],
      "min": [
        -0.66298526525497437,
        9.059906005859375e-06,
        -0.64068496227264404
      ],
      "type": "VEC3"
    },
    {
      "bufferView": 2,
      "byteOffset": 60192,
      "componentType": 5126,
      "count": 5016,
      "max": [
        1,
        0.99783700704574585,
        1
      ],
      "min": [
        -1,
        -1,
        -1
      ],
      "type": "VEC3"
    },
    {
      "bufferView": 1,
      "componentType": 5126,
      "count": 5016,
      "max": [
        1.0021076202392578,
        0.97463858127593994
      ],
      "min": [
        -0.002107471926137805,
        -1.1920928955078125e-07
      ],
      "type": "VEC2"
    },
    {
      "bufferView": 0,
      "componentType": 5125,
      "count": 22656,
      "max": [
        5015
      ],
      "min": [
        0
      ],
      "type": "SCALAR"
    },
    {
      "bufferView": 2,
      "byteOffset": 120384,
      "componentType": 5126,
      "count": 10920,
      "max": [
        1.3300127983093262,
        5.2542080879211426,
        1.7099714279174805
      ],
      "min": [
        -1.3470414876937866,
        2.4788656234741211,
        -1.7269997596740723
      ],
      "type": "VEC3"
    },
    {
      "bufferView": 2,
      "byteOffset": 251424,
      "componentType": 5126,
      "count": 10920,
      "max": [
        0.99961423873901367,
        0.99999988079071045,
        0.99884325265884399
      ],
      "min": [
        -0.99961423873901367,
        -0.99999988079071045,
        -0.99915945529937744
      ],
      "type": "VEC3"
    },
    {
      "bufferView": 1,
      "byteOffset": 40128,
      "componentType": 5126,
      "count": 10920,
      "max": [
        0.62500005960464478,
        0.75
      ],
      "min": [
        0.125,
        0.24999994039535522
      ],
      "type": "VEC2"
    },
    {
      "bufferView": 0,
      "byteOffset": 90624,
      "componentType": 5125,
      "count": 62592,
      "max": [
        10919
      ],
      "min": [
        0
      ],
      "type": "SCALAR"
    }
  ],
  "asset": {
    "extras": {
      "author": "yesitsskm (https://sketchfab.com/yesitsskm)",
      "license": "CC-BY-4.0 (http://creativecommons.org/licenses/by/4.0/)",
      "source": "https://sketchfab.com/3d-models/minimalist-chair-free-3d-model-high-poly-8b01a1f544e34d5eb1e609650bf45377",
      "title": "Minimalist Chair | FREE 3D MODEL | High-Poly"
    },
    "generator": "Sketchfab-9.97.0",
    "version": "2.0"
  },
  "bufferViews": [
    {
      "buffer": 0,
      "byteLength": 340992,
      "byteOffset": 0,
      "name": "floatBufferViews",
      "target": 34963
    },
    {
      "buffer": 0,
      "byteLength": 127488,
      "byteOffset": 340992,
      "byteStride": 8,
      "name": "floatBufferViews",
      "target": 34962
    },
    {
      "buffer": 0,
      "byteLength": 382464,
      "byteOffset": 468480,
      "byteStride": 12,
      "name": "floatBufferViews",
      "target": 34962
    }
  ],
  "buffers": [
    {
      "byteLength": 850944,
      "uri": "scene.bin"
    }
  ],
  "materials": [
    {
      "doubleSided": true,
      "emissiveFactor": [
        0,
        0,
        0
      ],
      "name": "Chair_Leg",
      "pbrMetallicRoughness": {
        "baseColorFactor": [
          0.79691400000000001,
          0.74709000000000003,
          0.80000000000000004,
          1
        ],
        "metallicFactor": 1,
        "roughnessFactor": 0.10000000000000001
      }
    },
    {
      "doubleSided": true,
      "emissiveFactor": [
        0,
        0,
        0
      ],
      "name": "Chair_Base",
      "pbrMetallicRoughness": {
        "baseColorFactor": [
          0.80000000000000004,
          0.80000000000000004,
          0.80000000000000004,
          1
        ],
        "metallicFactor": 0,
        "roughnessFactor": 0.40000000000000002
      }
    }
  ],
  "meshes": [
    {
      "primitives": [
        {
          "attributes": {
            "NORMAL": 1,
            "POSITION": 0,
            "TEXCOORD_0": 2
          },
          "indices": 3,
          "material": 0,
          "mode": 4
        }
      ]
    },
    {
      "primitives": [
        {
          "attributes": {
            "NORMAL": 5,
            "POSITION": 4,
            "TEXCOORD_0": 6
          },
          "indices": 7,
          "material": 1,
          "mode": 4
        }
      ]
    }
  ],
  "nodes": [
    {
      "children": [
        1
      ],
      "name": "RootNode (gltf orientation matrix)",
      "rotation": [
        -0.70710678118654746,
        -0,
        -0,
        0.70710678118654757
      ]
    },
    {
      "children": [
        2
      ],
      "matrix": [
        0.28388434648513794,
        0,
        0,
        0,
        0,
        0.28388434648513794,
        0,
        0,
        0,
        0,
        0.28388434648513794,
        0,
        0,
        0,
        0,
        1
      ],
      "name": "RootNode (model correction matrix)"
    },
    {
      "children": [
        3
      ],
      "name": "root"
    },
    {
      "children": [
        4
      ],
      "matrix": [
        1,
        0,
        0,
        0,
        0,
        2.2204460492503131e-16,
        1,
        0,
        0,
        -1,
        2.2204460492503131e-16,
        0,
        0,
        0,
        0,
        1
      ],
      "name": "GLTF_SceneRootNode"
    },
    {
      "children": [
        5,
        6
      ],
      "matrix": [
        -0.43523089116052333,
        0,
        0.55862722800486553,
        0,
        0,
        0.70815980434417725,
        0,
        0,
        -0.55862722800486553,
        0,
        -0.43523089116052333,
        0,
        0,
        0,
        0,
        1
      ],
      "name": "Chair_0"
    },
    {
      "mesh": 0,
      "name": ""
    },
    {
      "mesh": 1,
      "name": ""
    }
  ],
  "scene": 0,
  "scenes": [
    {
      "name": "OSG_Scene",
      "nodes": [
        0
      ]
    }
  ]
}

